<svg width="90" height="90" xmlns="http://www.w3.org/2000/svg" xmlns:xlink="http://www.w3.org/1999/xlink" overflow="hidden"><defs><clipPath id="clip0"><rect x="541" y="395" width="90" height="90"/></clipPath><linearGradient x1="626" y1="412" x2="542" y2="412" gradientUnits="userSpaceOnUse" spreadMethod="reflect" id="fill1"><stop offset="0" stop-color="#00B0F0"/><stop offset="0.2" stop-color="#00B0F0"/><stop offset="0.97" stop-color="#3F00B3"/><stop offset="1" stop-color="#3F00B3"/></linearGradient></defs><g clip-path="url(#clip0)" transform="translate(-541 -395)"><path d="M541.57 396 580.936 396C595.722 396 608.748 402.769 620.016 416.308 624.2 422.372 626.292 426.226 626.292 427.872L626.006 427.872C619.541 423.547 612.599 421.385 605.183 421.385L566.673 421.385 566.673 434.077C566.673 444.936 572.473 452.739 584.074 457.487L587.211 458.333 587.497 458.333 587.497 458.051C585.31 458.051 582.838 455.795 580.08 451.282 579.32 449.59 578.939 447.239 578.939 444.231L578.939 434.077 579.51 433.513 602.33 433.513C615.5 433.513 624.342 439.342 628.859 451 629.62 453.21 630 455.466 630 457.769L630 483.436 629.43 484 589.494 484C575.801 484 563.25 477.607 551.84 464.821 544.613 455.043 541 445.453 541 436.051L541 396.564Z" fill="#FFFFFF" fill-rule="evenodd"/><path d="M542 396 580.891 396C595.596 396 608.552 402.796 619.758 416.389 623.92 422.478 626 426.348 626 428L625.716 428C619.286 423.658 612.382 421.487 605.006 421.487L566.705 421.487 566.705 422.241 566.409 419.312C564.023 407.67 554.836 398.5 543.173 396.118L542 396Z" fill="url(#fill1)" fill-rule="evenodd"/><path d="M606.018 463C615.255 463 623.617 466.639 629.67 472.523L630 472.912 630 483.45 629.434 484 589.818 484C586.422 484 583.097 483.61 579.843 482.831L576 481.42 578.281 477.335C584.292 468.686 594.472 463 606.018 463Z" fill="#FFFFFF" fill-rule="evenodd" fill-opacity="0.141176"/></g></svg>